<svg version="1.1" id="Layer_1" xmlns="http://www.w3.org/2000/svg" xmlns:xlink="http://www.w3.org/1999/xlink" x="0px"
     y="0px"
     width="100%" viewBox="0 0 512 512" enable-background="new 0 0 512 512" xml:space="preserve">
<path fill="#1E1E8D" opacity="1.000000" stroke="none"
      d="
M336.000000,513.000000 
	C224.027206,513.000000 112.554405,513.000000 1.040803,513.000000 
	C1.040803,342.402191 1.040803,171.804352 1.040803,1.103257 
	C171.556137,1.103257 342.112366,1.103257 512.834290,1.103257 
	C512.834290,171.666534 512.834290,342.333252 512.834290,513.000000 
	C454.137665,513.000000 395.318817,513.000000 336.000000,513.000000 
M184.706848,363.795563 
	C180.238663,354.205597 172.687439,347.483429 163.927292,342.076172 
	C152.876038,335.254700 141.246048,329.308228 130.563644,321.968536 
	C118.670578,313.797058 106.958893,305.152405 96.260834,295.502472 
	C82.057274,282.690491 80.765244,264.989044 80.948120,247.198349 
	C80.950050,247.011108 81.433121,246.828812 81.698235,246.644760 
	C82.018715,246.684067 82.373398,246.649185 82.652626,246.777954 
	C83.253242,247.054886 83.884651,247.333755 84.382484,247.754852 
	C96.908012,258.349274 112.091713,262.198303 127.789726,263.562958 
	C136.287384,264.301636 142.226044,267.875397 148.025879,273.544342 
	C165.964859,291.078461 185.397018,306.753418 208.009003,317.968567 
	C222.126160,324.970428 236.840073,330.270691 252.987885,329.290222 
	C274.175201,328.003784 291.887756,318.776398 307.597565,305.026672 
	C317.399139,296.448029 324.562927,285.865173 330.952728,274.702057 
	C332.855286,271.378235 335.126801,270.630493 338.759033,271.550812 
	C346.016907,273.389832 353.378204,274.820526 360.696442,276.421326 
	C369.115845,278.262970 376.024933,276.178314 381.452759,269.129578 
	C384.442780,265.246674 388.078674,261.861176 391.806458,257.838013 
	C402.476715,266.255371 412.710785,274.328644 423.108154,282.530701 
	C423.950714,281.114380 424.621094,280.163757 425.115723,279.129150 
	C431.008698,266.803223 431.992401,270.135773 421.760223,260.940369 
	C415.616486,255.419098 409.075989,250.339355 402.504364,244.887466 
	C403.989716,242.480637 405.332031,240.400253 406.581024,238.265289 
	C411.620453,229.651138 417.177338,221.286423 421.538788,212.339966 
	C430.655426,193.639450 435.415649,173.896103 433.157471,152.899704 
	C431.248688,135.151825 422.150635,124.909561 406.125000,123.376572 
	C400.595490,122.847641 394.805664,123.631241 389.287292,124.645363 
	C368.395172,128.484741 349.268402,136.887787 331.151642,147.810196 
	C326.864349,150.394928 322.301880,152.523209 316.408020,155.630035 
	C315.820435,144.422836 315.121796,135.017303 314.873138,125.599884 
	C314.199158,100.074020 305.187164,78.228935 286.558685,60.581581 
	C279.838654,54.215500 272.510559,48.777153 263.028564,47.216946 
	C256.995911,46.224300 254.858917,47.251461 252.512497,52.751171 
	C242.974045,75.108177 233.393951,97.449127 224.132263,119.920898 
	C222.516129,123.842171 220.192932,125.141586 216.323151,126.083656 
	C203.907578,129.106155 191.277237,131.751907 179.364716,136.231506 
	C153.626175,145.910263 133.894012,164.082321 115.468445,183.866898 
	C107.092583,192.860535 99.162613,202.811996 87.161903,207.095795 
	C74.121872,211.750595 67.633224,220.730164 66.205025,234.042557 
	C66.045448,235.529984 65.704376,236.997345 65.466415,238.477066 
	C61.390877,263.819946 65.329681,287.499908 83.808975,306.187927 
	C94.352654,316.850677 107.056969,325.543488 119.463310,334.150513 
	C131.619644,342.584106 144.782333,349.551331 157.220993,357.598572 
	C167.344162,364.147827 173.005035,373.627930 173.307571,385.944702 
	C173.422012,390.603455 173.427399,395.266937 173.658493,399.919525 
	C173.727463,401.307983 173.958130,403.347321 174.859543,403.923889 
	C179.250290,406.732269 183.893539,409.145874 189.143280,412.089355 
	C189.563431,409.658661 189.970398,408.410645 189.963577,407.164886 
	C189.918060,398.847076 190.338425,390.472992 189.494217,382.231232 
	C188.879059,376.225891 186.557892,370.395325 184.706848,363.795563 
z"/>
    <path fill="#F7EAE0" opacity="1.000000" stroke="none"
          d="
M184.852066,364.141205 
	C186.557892,370.395325 188.879059,376.225891 189.494217,382.231232 
	C190.338425,390.472992 189.918060,398.847076 189.963577,407.164886 
	C189.970398,408.410645 189.563431,409.658661 189.143280,412.089355 
	C183.893539,409.145874 179.250290,406.732269 174.859543,403.923889 
	C173.958130,403.347321 173.727463,401.307983 173.658493,399.919525 
	C173.427399,395.266937 173.422012,390.603455 173.307571,385.944702 
	C173.005035,373.627930 167.344162,364.147827 157.220993,357.598572 
	C144.782333,349.551331 131.619644,342.584106 119.463310,334.150513 
	C107.056969,325.543488 94.352654,316.850677 83.808975,306.187927 
	C65.329681,287.499908 61.390877,263.819946 65.466415,238.477066 
	C65.704376,236.997345 66.045448,235.529984 66.205025,234.042557 
	C67.633224,220.730164 74.121872,211.750595 87.161903,207.095795 
	C99.162613,202.811996 107.092583,192.860535 115.468445,183.866898 
	C133.894012,164.082321 153.626175,145.910263 179.364716,136.231506 
	C191.277237,131.751907 203.907578,129.106155 216.323151,126.083656 
	C220.192932,125.141586 222.516129,123.842171 224.132263,119.920898 
	C233.393951,97.449127 242.974045,75.108177 252.512497,52.751171 
	C254.858917,47.251461 256.995911,46.224300 263.028564,47.216946 
	C272.510559,48.777153 279.838654,54.215500 286.558685,60.581581 
	C305.187164,78.228935 314.199158,100.074020 314.873138,125.599884 
	C315.121796,135.017303 315.820435,144.422836 316.408020,155.630035 
	C322.301880,152.523209 326.864349,150.394928 331.151642,147.810196 
	C349.268402,136.887787 368.395172,128.484741 389.287292,124.645363 
	C394.805664,123.631241 400.595490,122.847641 406.125000,123.376572 
	C422.150635,124.909561 431.248688,135.151825 433.157471,152.899704 
	C435.415649,173.896103 430.655426,193.639450 421.538788,212.339966 
	C417.177338,221.286423 411.620453,229.651138 406.581024,238.265289 
	C405.332031,240.400253 403.989716,242.480637 402.504364,244.887466 
	C409.075989,250.339355 415.616486,255.419098 421.760223,260.940369 
	C431.992401,270.135773 431.008698,266.803223 425.115723,279.129150 
	C424.621094,280.163757 423.950714,281.114380 423.108154,282.530701 
	C412.710785,274.328644 402.476715,266.255371 391.806458,257.838013 
	C388.078674,261.861176 384.442780,265.246674 381.452759,269.129578 
	C376.024933,276.178314 369.115845,278.262970 360.696442,276.421326 
	C353.378204,274.820526 346.016907,273.389832 338.759033,271.550812 
	C335.126801,270.630493 332.855286,271.378235 330.952728,274.702057 
	C324.562927,285.865173 317.399139,296.448029 307.597565,305.026672 
	C291.887756,318.776398 274.175201,328.003784 252.987885,329.290222 
	C236.840073,330.270691 222.126160,324.970428 208.009003,317.968567 
	C185.397018,306.753418 165.964859,291.078461 148.025879,273.544342 
	C142.226044,267.875397 136.287384,264.301636 127.789726,263.562958 
	C112.091713,262.198303 96.908012,258.349274 84.382484,247.754852 
	C83.884651,247.333755 83.253242,247.054886 82.652626,246.777954 
	C82.373398,246.649185 82.018715,246.684067 81.694908,246.644485 
	C81.433121,246.828812 80.950050,247.011108 80.948120,247.198349 
	C80.765244,264.989044 82.057274,282.690491 96.260834,295.502472 
	C106.958893,305.152405 118.670578,313.797058 130.563644,321.968536 
	C141.246048,329.308228 152.876038,335.254700 163.927292,342.076172 
	C172.687439,347.483429 180.238663,354.205597 184.852066,364.141205 
M288.350220,213.100006 
	C288.207581,210.108292 288.354065,207.061737 287.801331,204.147812 
	C287.521515,202.672607 286.261658,200.704468 284.964050,200.202789 
	C264.950928,192.465164 244.122894,190.425552 223.852554,197.153259 
	C198.894241,205.436890 176.706329,219.446320 155.893173,235.556290 
	C151.043701,239.309937 149.733078,243.735550 151.608627,249.116135 
	C152.674698,252.174469 154.182327,255.363373 156.341522,257.711426 
	C174.423615,277.375000 195.079056,293.717010 219.240692,305.390625 
	C230.558472,310.858795 242.440323,313.879150 255.040115,312.320679 
	C285.605652,308.539978 304.799561,289.976532 318.271973,263.214050 
	C302.320648,250.321075 289.049377,235.914627 288.350220,213.100006 
M205.099136,171.605148 
	C184.736908,180.737335 166.309143,192.887039 149.502747,207.505234 
	C147.165710,209.537964 145.013290,212.029129 143.562317,214.730713 
	C142.833847,216.087067 143.875656,218.394196 144.116882,220.271347 
	C145.793915,220.049652 147.682907,220.242508 149.102188,219.516754 
	C151.750946,218.162308 154.064743,216.171371 156.626511,214.625214 
	C170.141754,206.468124 183.375076,197.772247 197.299530,190.381042 
	C220.303757,178.170227 244.801193,173.293045 270.689026,178.969116 
	C278.095917,180.593140 285.327118,183.018646 292.602448,185.066391 
	C296.259430,179.866837 300.087921,174.832199 303.357697,169.457687 
	C304.082336,168.266632 303.476501,164.938660 302.387909,164.192322 
	C296.362610,160.061356 290.034210,156.363434 283.714996,152.679550 
	C282.685150,152.079178 281.148590,152.011307 279.904175,152.165375 
	C254.372437,155.326340 229.392059,160.657333 205.099136,171.605148 
M348.641998,230.123306 
	C353.399445,232.027969 357.179321,229.911499 360.394745,226.824707 
	C374.074615,213.692169 382.667206,197.563934 387.694580,179.432465 
	C388.158630,177.758835 387.994690,175.911057 388.163300,173.577255 
	C386.162170,173.812286 384.615387,173.666794 383.347137,174.192780 
	C368.225494,180.464325 353.859802,188.085831 341.036591,198.384109 
	C336.025208,202.408722 334.810516,207.771805 336.388458,213.667770 
	C338.195160,220.418625 341.474396,226.330368 348.641998,230.123306 
M123.917900,246.562637 
	C127.418930,247.029205 130.919952,247.495773 136.166489,248.194962 
	C133.104477,239.519104 131.231720,231.877975 127.723061,225.081345 
	C125.330734,220.447174 120.893074,216.719238 116.856987,213.169296 
	C115.550323,212.020020 112.130852,211.837982 110.509293,212.728134 
	C103.184692,216.748947 96.158119,221.312668 88.857994,225.782593 
	C91.723183,232.797226 97.111359,238.065689 104.519753,240.864258 
	C110.541756,243.139099 116.887619,244.556625 123.917900,246.562637 
M241.283539,124.720245 
	C248.445801,125.869110 255.608047,127.017975 263.238312,128.241913 
	C263.836395,112.603119 261.867889,97.909744 258.162781,83.250732 
	C256.783173,84.738220 255.922836,86.278198 255.238312,87.892715 
	C250.900543,98.123924 246.569672,108.358391 242.320480,118.626534 
	C241.588882,120.394447 241.259003,122.328606 241.283539,124.720245 
z"/>
    <path fill="#21218E" opacity="1.000000" stroke="none"
          d="
M288.394592,213.555161 
	C289.049377,235.914627 302.320648,250.321075 318.271973,263.214050 
	C304.799561,289.976532 285.605652,308.539978 255.040115,312.320679 
	C242.440323,313.879150 230.558472,310.858795 219.240692,305.390625 
	C195.079056,293.717010 174.423615,277.375000 156.341522,257.711426 
	C154.182327,255.363373 152.674698,252.174469 151.608627,249.116135 
	C149.733078,243.735550 151.043701,239.309937 155.893173,235.556290 
	C176.706329,219.446320 198.894241,205.436890 223.852554,197.153259 
	C244.122894,190.425552 264.950928,192.465164 284.964050,200.202789 
	C286.261658,200.704468 287.521515,202.672607 287.801331,204.147812 
	C288.354065,207.061737 288.207581,210.108292 288.394592,213.555161 
M256.022644,273.526276 
	C262.584045,264.864441 267.973053,255.943466 265.087616,244.244553 
	C259.753754,222.618469 236.082809,211.733322 217.940125,222.731506 
	C201.328918,232.801254 196.728256,253.729187 207.773499,268.978394 
	C219.209412,284.767059 240.694275,287.061554 256.022644,273.526276 
z"/>
    <path fill="#24248F" opacity="1.000000" stroke="none"
          d="
M205.438416,171.437500 
	C229.392059,160.657333 254.372437,155.326340 279.904175,152.165375 
	C281.148590,152.011307 282.685150,152.079178 283.714996,152.679550 
	C290.034210,156.363434 296.362610,160.061356 302.387909,164.192322 
	C303.476501,164.938660 304.082336,168.266632 303.357697,169.457687 
	C300.087921,174.832199 296.259430,179.866837 292.602448,185.066391 
	C285.327118,183.018646 278.095917,180.593140 270.689026,178.969116 
	C244.801193,173.293045 220.303757,178.170227 197.299530,190.381042 
	C183.375076,197.772247 170.141754,206.468124 156.626511,214.625214 
	C154.064743,216.171371 151.750946,218.162308 149.102188,219.516754 
	C147.682907,220.242508 145.793915,220.049652 144.116882,220.271362 
	C143.875656,218.394196 142.833847,216.087067 143.562317,214.730713 
	C145.013290,212.029129 147.165710,209.537964 149.502747,207.505234 
	C166.309143,192.887039 184.736908,180.737335 205.438416,171.437500 
z"/>
    <path fill="#23228F" opacity="1.000000" stroke="none"
          d="
M348.282776,230.000671 
	C341.474396,226.330368 338.195160,220.418625 336.388458,213.667770 
	C334.810516,207.771805 336.025208,202.408722 341.036591,198.384109 
	C353.859802,188.085831 368.225494,180.464325 383.347137,174.192780 
	C384.615387,173.666794 386.162170,173.812286 388.163300,173.577255 
	C387.994690,175.911057 388.158630,177.758835 387.694580,179.432465 
	C382.667206,197.563934 374.074615,213.692169 360.394745,226.824707 
	C357.179321,229.911499 353.399445,232.027969 348.282776,230.000671 
z"/>
    <path fill="#24238F" opacity="1.000000" stroke="none"
          d="
M123.503876,246.458496 
	C116.887619,244.556625 110.541756,243.139099 104.519753,240.864258 
	C97.111359,238.065689 91.723183,232.797226 88.857994,225.782593 
	C96.158119,221.312668 103.184692,216.748947 110.509293,212.728134 
	C112.130852,211.837982 115.550323,212.020020 116.856987,213.169296 
	C120.893074,216.719238 125.330734,220.447174 127.723061,225.081345 
	C131.231720,231.877975 133.104477,239.519104 136.166489,248.194962 
	C130.919952,247.495773 127.418930,247.029205 123.503876,246.458496 
z"/>
    <path fill="#24248F" opacity="1.000000" stroke="none"
          d="
M241.013550,124.453110 
	C241.259003,122.328606 241.588882,120.394447 242.320480,118.626534 
	C246.569672,108.358391 250.900543,98.123924 255.238312,87.892715 
	C255.922836,86.278198 256.783173,84.738220 258.162781,83.250732 
	C261.867889,97.909744 263.836395,112.603119 263.238312,128.241913 
	C255.608047,127.017975 248.445801,125.869110 241.013550,124.453110 
z"/>
    <path fill="#F5E8DF" opacity="1.000000" stroke="none"
          d="
M255.800629,273.805054 
	C240.694275,287.061554 219.209412,284.767059 207.773499,268.978394 
	C196.728256,253.729187 201.328918,232.801254 217.940125,222.731506 
	C236.082809,211.733322 259.753754,222.618469 265.087616,244.244553 
	C267.973053,255.943466 262.584045,264.864441 255.800629,273.805054 
M226.997391,235.542236 
	C223.665421,242.642822 219.431870,249.481125 221.927444,257.970947 
	C223.449387,263.148621 228.780502,266.408691 235.305496,265.697174 
	C241.182953,265.056244 245.037064,261.697052 244.502075,256.120422 
	C243.915710,250.008041 242.694519,243.755173 240.486374,238.052826 
	C237.961533,231.532608 233.163345,230.819748 226.997391,235.542236 
z"/>
    <path fill="#2A2992" opacity="1.000000" stroke="none"
          d="
M227.257050,235.277283 
	C233.163345,230.819748 237.961533,231.532608 240.486374,238.052826 
	C242.694519,243.755173 243.915710,250.008041 244.502075,256.120422 
	C245.037064,261.697052 241.182953,265.056244 235.305496,265.697174 
	C228.780502,266.408691 223.449387,263.148621 221.927444,257.970947 
	C219.431870,249.481125 223.665421,242.642822 227.257050,235.277283 
M234.213699,242.898575 
	C235.321823,242.069183 236.429962,241.239792 237.538101,240.410416 
	C236.702255,239.305649 235.934875,237.327377 235.018051,237.255508 
	C231.935883,237.013931 229.125122,237.935287 228.025131,242.156204 
	C229.965820,242.447113 231.685944,242.704956 234.213699,242.898575 
M234.582199,257.240326 
	C234.875336,255.832733 235.504669,254.383789 235.338501,253.032684 
	C235.234894,252.190430 233.784027,250.775177 233.195740,250.894012 
	C232.158844,251.103470 230.676575,252.179230 230.520386,253.088089 
	C230.091965,255.581207 230.013382,258.362732 234.582199,257.240326 
z"/>
    <path fill="#D7CCD4" opacity="1.000000" stroke="none"
          d="
M233.809875,242.930695 
	C231.685944,242.704956 229.965820,242.447113 228.025131,242.156204 
	C229.125122,237.935287 231.935883,237.013931 235.018051,237.255508 
	C235.934875,237.327377 236.702255,239.305649 237.538101,240.410400 
	C236.429962,241.239792 235.321823,242.069183 233.809875,242.930695 
z"/>
    <path fill="#D9CED4" opacity="1.000000" stroke="none"
          d="
M234.303146,257.504578 
	C230.013382,258.362732 230.091965,255.581207 230.520386,253.088089 
	C230.676575,252.179230 232.158844,251.103470 233.195740,250.894012 
	C233.784027,250.775177 235.234894,252.190430 235.338501,253.032684 
	C235.504669,254.383789 234.875336,255.832733 234.303146,257.504578 
z"/>
</svg>